<svg xmlns="http://www.w3.org/2000/svg" width="2221.349" height="4723.574" viewBox="0 0 2221.349 4723.574">
  <path id="Path_204" data-name="Path 204" d="M-46.429-937.867S605.9-916.974,691.793-1258.228,183.395-1132.87,304.111-926.26s495.889-275.944,745.9-280.9,423.817,448.04,869.832,448.04,223.037-723.4-48.395-499.113-745.43,992.11-1399.3,992.11,541.516-381.6,515.068,353.68S78.572,505.362,0,957.153s1183.941,68.93,1463.677,186.628-96.573,328.95-187.109,244.449,455.04-172.02,381.432,39.233S516.059,1759.43,304.807,2184.953,1571.659,2366.026,1658,2541.064s-477.453,487.2-1014.627,496.854-528.131,196.163-431.558,226.342-51.3-277.646-229.36,78.465" transform="translate(46.461 1380.403)" fill="none" stroke="#1de3b0" stroke-width="2"/>
</svg>
