<svg xmlns="http://www.w3.org/2000/svg" width="194.131" height="103.674" viewBox="0 0 194.131 103.674">
  <g id="Group_115" data-name="Group 115" transform="translate(-17.684 -4.869)">
    <path id="Path_285" data-name="Path 285" d="M120.576,62.523s-3.413,15.358,0,29.863c0,0-38.395-24.744-76.79-24.744S3.685,97.5,91.566,71.908s124.57-50.34,118.6-59.725S148.732.238,88.153,30.954,53.171,62.523,82.181,74.468" fill="none" stroke="#1de3b0" stroke-linecap="round" stroke-linejoin="round" stroke-miterlimit="10" stroke-width="2"/>
    <path id="Path_286" data-name="Path 286" d="M125.035,85.009c-.611.966.476,2.285,1.619,2.315a4.452,4.452,0,0,0,2.966-1.532c1.765-1.665,3.1-5.008.935-6.1-1.058-.535-2.324-.068-3.412.4a8.319,8.319,0,0,0-3.966,2.738c-.881,1.374-.612,3.6.916,4.17,1.632.612,3.215-.927,4.285-2.3" fill="none" stroke="#1de3b0" stroke-linecap="round" stroke-linejoin="round" stroke-miterlimit="10" stroke-width="2"/>
    <path id="Path_287" data-name="Path 287" d="M132.141,78.968c-1.843,3.628,3.415,7.6,7.194,6.094s5.506-5.9,6.081-9.928a7.641,7.641,0,0,0,2.026,8.448,10.746,10.746,0,0,0,5.795-8.115c-.84,1.166.11,2.935,1.464,3.415a6.239,6.239,0,0,0,4.195-.446c5.6-2.095,10.83-5.857,13.343-11.278a17.38,17.38,0,0,0-1.061-16.295c-5.154,5.682-3.323,14.761.134,21.609.9,1.793,2.033,3.664,3.891,4.425,3.416,1.4,7.075-1.746,8.585-5.114s2-7.279,4.352-10.119c1.446,3.352,5.043,5.375,8.652,5.929s7.28-.119,10.868-.79L145.74,96.385c-6.612,3.159-13.31,6.373-18.86,11.158a133.284,133.284,0,0,0,27.128-6.58" fill="none" stroke="#1de3b0" stroke-linecap="round" stroke-linejoin="round" stroke-miterlimit="10" stroke-width="2"/>
  </g>
</svg>
