<svg xmlns="http://www.w3.org/2000/svg" xmlns:xlink="http://www.w3.org/1999/xlink" width="1920" height="659.81" viewBox="0 0 1920 659.81">
  <defs>
    <clipPath id="clip-path">
      <path id="Image_004" data-name="Image 004" d="M0,0H1920V659.809H0Z" fill="#eaeef1"/>
    </clipPath>
  </defs>
  <g id="Group_4" data-name="Group 4" transform="translate(1920 659.81) rotate(180)" clip-path="url(#clip-path)">
    <path id="Path_293" data-name="Path 293" d="M0,145.951H960.455L1312.444,0,1920,145.951v397H0Z" transform="translate(0 116.954)" fill="#122031"/>
    <g id="Group_93" data-name="Group 93" transform="translate(-135.941 -295.735)">
      <path id="Subtraction_2" data-name="Subtraction 2" d="M0,949.724H0V639.214A496.62,496.62,0,0,1,66.162,654.1c14.53,4.218,29.24,8.9,43.465,13.424l.025.008c22.291,7.093,45.336,14.425,68.3,20.178,12.364,3.1,23.716,5.5,34.706,7.351a322.287,322.287,0,0,0,35.351,4.059c5.632.322,11.417.486,17.194.487h.006a348.594,348.594,0,0,0,45.4-3.076c14.166-1.845,28.845-4.5,44.875-8.113,29.782-6.715,59.834-15.822,88.9-24.629l.177-.053c29.077-8.811,59.144-17.922,89.066-24.66,16.077-3.62,30.8-6.279,45.024-8.127a350.722,350.722,0,0,1,45.594-3.083c3.438,0,6.9.058,10.279.171a397.45,397.45,0,0,1,43.154,4.073c14.335,2.057,28.858,4.679,42.9,7.214,15.469,2.793,31.464,5.681,47.208,7.81a352.657,352.657,0,0,0,47.275,3.546,238.033,238.033,0,0,0,23.81-1.16,224.666,224.666,0,0,0,32.282-5.7,245.619,245.619,0,0,0,30.651-9.97,285.268,285.268,0,0,0,29.121-13.615c9.118-4.891,18.434-10.485,27.692-16.629a492.7,492.7,0,0,0,51.5-39.778c14.052-12.263,28.988-26.329,47-44.268q2.8-2.784,5.6-5.582l.006-.006c29.1-29.011,59.2-59.009,92.334-84.145,8.566-6.5,17.137-12.509,25.475-17.867,8.945-5.749,17.982-10.979,26.86-15.545a276.081,276.081,0,0,1,28.458-12.7,249.66,249.66,0,0,1,30.27-9.32,255.63,255.63,0,0,1,31.137-5.39,284.6,284.6,0,0,1,31.124-1.674,349.747,349.747,0,0,1,44.167,2.921c13.879,1.753,28.344,4.275,44.219,7.712,29.509,6.387,59.641,15.077,88.781,23.481l.009,0c24.8,7.152,50.444,14.547,75.843,20.579,13.677,3.248,26.174,5.848,38.205,7.947,13.506,2.357,26.077,4.026,38.43,5.1,13.317,1.161,27.837,1.725,44.39,1.725,15.994,0,32.27-.519,48.011-1.021h.049c15.733-.5,32-1.02,47.954-1.02,24.442,0,44.449,1.223,62.965,3.849a232.582,232.582,0,0,1,49.841,12.865,213.637,213.637,0,0,1,23.387,10.54,183.222,183.222,0,0,1,21.313,13.11c13.879,9.954,25.064,21.2,33.246,33.425a91.221,91.221,0,0,1,15.48,42.192h65.882V31.59H0V0H2133.026l-8.374,765.027a68.671,68.671,0,0,1-17.913,6.954,83.9,83.9,0,0,1-19.4,2.193,115.32,115.32,0,0,1-75.57-29.966,133.185,133.185,0,0,1-15.176-17.06,172.5,172.5,0,0,1-12.121-18.639c-7.289-12.834-13.294-26.542-19.1-39.8l-.029-.066c-2.512-5.733-5.109-11.662-7.768-17.415a257.445,257.445,0,0,0-12.588-24.117,172.185,172.185,0,0,0-16-22.683,126.719,126.719,0,0,0-20.325-19.455,110.959,110.959,0,0,0-12.076-7.956,108.607,108.607,0,0,0-13.5-6.475c-15.236-6.05-32.284-8.99-52.118-8.99A286.351,286.351,0,0,0,1795.88,564c-11.844,1.466-24.028,3.459-35.811,5.386h-.008l-.436.071c-23.754,3.885-48.314,7.9-72.181,7.9a163.215,163.215,0,0,1-37.46-3.99,141.984,141.984,0,0,1-26.419-9.012,181,181,0,0,1-23.712-13.037c-15.111-9.737-29.264-21.467-42.95-32.811-11.507-9.537-23.407-19.4-35.849-28.062a174.625,174.625,0,0,0-29.764-16.588,204.229,204.229,0,0,0-32.381-10.923,256.911,256.911,0,0,0-34.39-6.006,335.535,335.535,0,0,0-35.792-1.836c-28.579,0-60.317,3.168-97.026,9.684-22.021,3.909-41.11,8.174-58.361,13.039-9.574,2.7-18.728,5.637-27.206,8.729-8.983,3.276-17.536,6.846-25.422,10.609a224.576,224.576,0,0,0-23.286,12.795,180.867,180.867,0,0,0-20.8,15.285,155.118,155.118,0,0,0-17.961,18.081,145.323,145.323,0,0,0-14.771,21.181,228.8,228.8,0,0,0-11.521,23.2c-3.207,7.437-6.208,15.316-9.174,24.085-5.507,16.282-10.031,33.186-14.407,49.533l-.008.029c-3.27,12.215-6.651,24.846-10.4,37.039a340.377,340.377,0,0,1-12.971,35.79,203.271,203.271,0,0,1-18.15,33.42,170.216,170.216,0,0,1-11.834,15.481,164.977,164.977,0,0,1-14.109,14.48c-21.367,19.388-49.176,34.083-82.656,43.675a325.407,325.407,0,0,1-49.1,9.851,415.508,415.508,0,0,1-51.25,3.081,482.606,482.606,0,0,1-54.849-3.187c-19.97-2.295-41.578-5.772-66.058-10.63-21.834-4.333-43.881-9.339-65.2-14.18-19.3-4.382-39.251-8.912-59.009-12.935-22.142-4.508-41.661-7.881-59.672-10.309a662.559,662.559,0,0,0-88.22-5.855C264.553,797.068,105.56,854.135,0,949.724Z" transform="translate(118.702)" fill="#122031"/>
      <path id="Subtraction_1" data-name="Subtraction 1" d="M383.92,668.019h-.01c-5.772,0-11.558-.164-17.2-.486a322.27,322.27,0,0,1-35.348-4.058c-10.985-1.848-22.337-4.253-34.7-7.35-22.97-5.754-46.013-13.086-68.3-20.176l-.043-.014c-14.223-4.525-28.931-9.2-43.458-13.421a523.239,523.239,0,0,0-55.121-13.1c-9.651-1.7-19.119-3.012-28.142-3.888-9.648-.937-19.107-1.413-28.114-1.413a228.816,228.816,0,0,0-37.436,2.962A183.685,183.685,0,0,0,0,616.828L7.575,378.977c4.627-.3,9.391-.449,14.16-.449a270.129,270.129,0,0,1,42.218,3.513,372.831,372.831,0,0,1,42.214,9.415c24.7,6.961,51.045,16.7,80.531,29.784,5.329,2.364,10.786,4.808,16.064,7.171l.125.056c29.85,13.365,60.716,27.186,92.226,37.6A374.422,374.422,0,0,0,342.95,478.7c8.247,1.566,16.44,2.765,24.351,3.563a246.485,246.485,0,0,0,24.64,1.265A223.68,223.68,0,0,0,418.1,482a273.244,273.244,0,0,0,33.805-6.405c11.1-2.757,22.25-6.033,33.034-9.2l.011,0c12-3.525,24.406-7.171,36.766-10.108a244.95,244.95,0,0,1,37.726-6.224c5.068-.394,10.289-.594,15.519-.594a234.552,234.552,0,0,1,29.775,1.966c9.29,1.179,18.914,2.875,29.42,5.183,19.526,4.291,39.229,10.111,58.284,15.74l.215.063c19.076,5.635,38.8,11.461,58.5,15.78,10.566,2.316,20.252,4.017,29.613,5.2a237.366,237.366,0,0,0,30.024,1.973c2.682,0,5.376-.051,8.008-.153a208.46,208.46,0,0,0,28.014-3.006,223.212,223.212,0,0,0,26.8-6.482,251.084,251.084,0,0,0,25.606-9.471c8.061-3.481,16.282-7.509,24.434-11.972,7.652-4.189,15.486-8.9,23.283-13.986,7.238-4.725,14.692-9.944,22.155-15.512,12.912-9.633,26.325-20.64,41.008-33.651,5.817-5.155,11.71-10.455,17.41-15.581,22.78-20.487,46.335-41.671,71.851-59.869a335.472,335.472,0,0,1,40.158-24.836c7.2-3.746,14.522-7.16,21.764-10.149,7.607-3.139,15.387-5.917,23.125-8.257,26.554-8.028,55.238-11.931,87.692-11.931,11.177,0,22.65.45,35.075,1.376,11.07.825,22.652,2.013,35.408,3.631,23.7,3.007,47.993,7.09,71.484,11.038l.655.11h.008c47.252,7.942,96.112,16.154,143.877,16.154,10.339,0,20.463-.391,30.093-1.162,10.213-.818,20.256-2.094,29.85-3.793,15.855-2.808,31.706-6.992,47.035-11.037,13.453-3.551,27.364-7.223,41.163-9.929,7.425-1.456,14.228-2.525,20.8-3.268a186.218,186.218,0,0,1,21.091-1.239c1.749,0,3.506.028,5.224.083a176.641,176.641,0,0,1,30.317,3.72,236.032,236.032,0,0,1,29.119,8.168c18.72,6.476,36.827,14.858,55.273,23.6,16.78,7.953,35.8,16.964,55.1,23.846a243.635,243.635,0,0,0,28.993,8.489,178.342,178.342,0,0,0,30.238,4.188c2.015.1,4.073.15,6.119.15a131,131,0,0,0,29.565-3.4,115.252,115.252,0,0,0,27.1-9.827,77.945,77.945,0,0,0,21.251-15.707,49.636,49.636,0,0,0,12.021-21.037l21.064-253.365H18.328L19.643,0H2189.264V519.157h-65.881c-2.78-28.6-19.63-54.749-48.728-75.617a183.26,183.26,0,0,0-21.313-13.109,213.571,213.571,0,0,0-23.387-10.54,232.576,232.576,0,0,0-49.841-12.864c-18.517-2.626-38.524-3.849-62.963-3.849-15.95,0-32.214.518-47.941,1.019h-.04c-15.746.5-32.027,1.02-48.028,1.02-16.555,0-31.078-.564-44.4-1.725-12.347-1.076-24.917-2.745-38.428-5.1-12.029-2.1-24.526-4.7-38.2-7.947-25.406-6.034-51.052-13.429-75.853-20.582-29.142-8.4-59.277-17.094-88.785-23.481-15.877-3.437-30.341-5.959-44.219-7.712a349.684,349.684,0,0,0-44.165-2.921,284.554,284.554,0,0,0-31.124,1.674,255.614,255.614,0,0,0-31.137,5.391,249.626,249.626,0,0,0-30.27,9.32,276.1,276.1,0,0,0-28.458,12.7c-8.878,4.566-17.915,9.8-26.86,15.545-8.342,5.361-16.913,11.373-25.475,17.868-33.139,25.137-63.234,55.137-92.337,84.149q-2.807,2.8-5.6,5.583c-18.015,17.939-32.951,32.005-47,44.268a492.815,492.815,0,0,1-51.5,39.778c-9.258,6.144-18.575,11.739-27.692,16.629a285.349,285.349,0,0,1-29.121,13.615,245.572,245.572,0,0,1-30.651,9.971,224.66,224.66,0,0,1-32.282,5.7,238.094,238.094,0,0,1-23.814,1.161c-7.59,0-15.329-.319-23.66-.974-7.424-.585-15.15-1.426-23.618-2.571-15.744-2.13-31.74-5.018-47.209-7.81-14.041-2.535-28.561-5.157-42.9-7.214a397.387,397.387,0,0,0-43.152-4.074c-3.381-.113-6.838-.171-10.277-.171a350.662,350.662,0,0,0-45.595,3.083c-14.219,1.848-28.946,4.506-45.023,8.127-29.918,6.737-59.988,15.849-89.067,24.661l-.2.059-.01,0c-29.055,8.8-59.1,17.908-88.872,24.621-16.029,3.614-30.705,6.267-44.868,8.111A348.577,348.577,0,0,1,383.92,668.019Z" transform="translate(0 31.59)" fill="#6a7494"/>
    </g>
  </g>
</svg>
