<svg id="Component_61" data-name="Component 61" xmlns="http://www.w3.org/2000/svg" xmlns:xlink="http://www.w3.org/1999/xlink" width="1920" height="659.81" viewBox="0 0 1920 659.81">
  <defs>
    <clipPath id="clip-path">
      <rect id="Image_004" data-name="Image 004" width="1920" height="659.809" fill="#eaeef1"/>
    </clipPath>
  </defs>
  <g id="Mask_Group_3" data-name="Mask Group 3" clip-path="url(#clip-path)">
    <g id="Group_93" data-name="Group 93" transform="translate(-184.373 -295.735)">
      <path id="Path_272" data-name="Path 272" d="M2091.974,731.4c-34.765,19.651-85.214,5.295-112.878-20.817s-39.27-60.669-54.2-92.979-36.468-65.589-74.49-80.686c-71-28.19-157.2,20.546-233.1,2.823-53.153-12.41-86.855-53.628-128.931-82.92-62.615-43.592-148.964-39.94-229.354-25.669s-152.98,38.831-187.8,99.72c-43.177,75.5-34.324,171.128-102.574,233.059-57.305,52-153.041,63.16-237.85,53.419s-165.441-36.66-249.942-48.053c-186.617-25.164-386.83,32.07-513.529,146.8V-33.63H2100.348Z" transform="translate(199.812 33.63)" fill="#122031"/>
      <path id="Path_273" data-name="Path 273" d="M-66.614,594.254c58-22.443,124.824-11.745,184.864,5.684s118.965,41.42,181.849,45.021c131.991,7.558,254.349-75.508,386.511-71.084,68.743,2.3,135.982,28.39,204.351,21.483,88.352-8.927,158.221-70.182,218.252-129.956s123.005-124.641,209-145.161c129.644-30.936,258.512,49.053,391.916,60.68,67.578,5.889,136.286-5.981,203.368,3.532s137.276,50.479,143.268,112.13h65.882V-22.575H-46.97Z" transform="translate(115.045 54.165)" fill="#6a7494"/>
      <path id="Path_274" data-name="Path 274" d="M2046.935,245.247c-8.8,32.979-54.815,51.862-96.054,49.819s-78.6-19.586-114.334-36.522-73.42-34.168-114.708-35.488c-46.455-1.483-89.877,17.343-135.314,25.389-143.2,25.361-296.722-56.971-434.142-15.425-71.674,21.672-122.5,72.785-174.308,118.691s-114.956,91.133-191.3,94.079c-89,3.435-170.656-52.047-259.362-45.158-48.781,3.786-92.85,26.209-141.344,31.942-81.72,9.661-158.844-28.57-231.4-60.763s-161.107-59.8-235.128-29.9V-8.118H2068Z" transform="translate(80.46 81.02)" fill="#eaeef1"/>
    </g>
  </g>
</svg>
